HIERARCHY
ROOT Hips
{
	OFFSET 0.00000 0.00000 0.00000
	CHANNELS 6 Xposition Yposition Zposition Zrotation Yrotation Xrotation 
	JOINT LHipJoint
	{
		OFFSET 0 0 0
		CHANNELS 3 Zrotation Yrotation Xrotation
		JOINT LeftHip
		{
			OFFSET 1.53927 -1.56553 0.51726
			CHANNELS 3 Zrotation Yrotation Xrotation
			JOINT LeftKnee
			{
				OFFSET 2.38199 -6.54447 0.00000
				CHANNELS 3 Zrotation Yrotation Xrotation
				JOINT LeftAnkle
				{
					OFFSET 2.35499 -6.47028 0.00000
					CHANNELS 3 Zrotation Yrotation Xrotation
					JOINT LeftToe
					{
						OFFSET 0.13641 -0.37478 1.84251
						CHANNELS 3 Zrotation Yrotation Xrotation
						End Site
						{
							OFFSET 0.00000 -0.00000 0.95212
						}
					}
				}
			}
		}
	}
	JOINT RHipJoint
	{
		OFFSET 0 0 0
		CHANNELS 3 Zrotation Yrotation Xrotation
		JOINT RightHip
		{
			OFFSET -1.43919 -1.56553 0.51726
			CHANNELS 3 Zrotation Yrotation Xrotation
			JOINT RightKnee
			{
				OFFSET -2.34860 -6.45274 0.00000
				CHANNELS 3 Zrotation Yrotation Xrotation
				JOINT RightAnkle
				{
					OFFSET -2.25563 -6.19730 0.00000
					CHANNELS 3 Zrotation Yrotation Xrotation
					JOINT RightToe
					{
						OFFSET -0.19755 -0.54277 1.84912
						CHANNELS 3 Zrotation Yrotation Xrotation
						End Site
						{
							OFFSET -0.00000 -0.00000 0.97032
						}
					}
				}
			}
		}
	}
	JOINT lowerback
	{
		OFFSET 0 0 0
		CHANNELS 3 Zrotation Yrotation Xrotation
		JOINT Chest
		{
			OFFSET -0.06402 1.88434 -0.00445
			CHANNELS 3 Zrotation Yrotation Xrotation
			JOINT Chest2
			{
				OFFSET 0.00756 1.88511 0.04237
				CHANNELS 3 Zrotation Yrotation Xrotation
				JOINT lowerneck
				{
					OFFSET 0 0 0
					CHANNELS 3 Zrotation Yrotation Xrotation
					JOINT Neck
					{
						OFFSET -0.06230 1.34710 0.03308
						CHANNELS 3 Zrotation Yrotation Xrotation
						JOINT Head
						{
							OFFSET -0.02442 1.34501 -0.13654
							CHANNELS 3 Zrotation Yrotation Xrotation
							End Site
							{
								OFFSET -0.00508 1.35584 -0.05075
							}
						}
					}
				}
				JOINT LeftCollar
				{
					OFFSET 0 0 0
					CHANNELS 3 Zrotation Yrotation Xrotation
					JOINT LeftShoulder
					{
						OFFSET 2.76911 0.54460 0.39412
CHANNELS 3 Zrotation Xrotation Yrotation
						JOINT LeftElbow
						{
OFFSET 0 -4.409190 -0.000000
CHANNELS 3 Zrotation Xrotation Yrotation
							JOINT LeftWrist
							{
OFFSET 0 -3.038570 -0.000000
CHANNELS 3 Zrotation Xrotation Yrotation
								JOINT lhand
								{
									OFFSET 0 0 0
CHANNELS 3 Zrotation Xrotation Yrotation
									JOINT LFingers
									{
OFFSET 0 -0.523210 -0.000000
CHANNELS 3 Zrotation Xrotation Yrotation
										End Site
										{
OFFSET 0 -0.421820 -0.000000
										}
									}
								}
								JOINT LThumb
								{
OFFSET 0 0.000000 0.000000
CHANNELS 3 Zrotation Xrotation Yrotation
									End Site
									{
OFFSET 0 -0.428260 0.428260
									}
								}
							}
						}
					}
				}
				JOINT RightCollar
				{
					OFFSET 0 0 0
					CHANNELS 3 Zrotation Yrotation Xrotation
					JOINT RightShoulder
					{
						OFFSET -2.99050 0.75949 0.48975
CHANNELS 3 Zrotation Xrotation Yrotation
						JOINT RightElbow
						{
OFFSET 0 -4.619690 -0.000000
CHANNELS 3 Zrotation Xrotation Yrotation
							JOINT RightWrist
							{
OFFSET 0 -3.093820 -0.000000
CHANNELS 3 Zrotation Xrotation Yrotation
								JOINT rhand
								{
									OFFSET 0 0 0
CHANNELS 3 Zrotation Xrotation Yrotation
									JOINT RFingers
									{
OFFSET 0 -0.500900 -0.000000
CHANNELS 3 Zrotation Xrotation Yrotation
										End Site
										{
OFFSET 0 -0.403840 -0.000000
										}
									}
								}
								JOINT RThumb
								{
OFFSET 0 0.000000 0.000000
CHANNELS 3 Zrotation Xrotation Yrotation
									End Site
									{
OFFSET 0 -0.410000 0.410000
									}
								}
							}
						}
					}
				}
			}
		}
	}
}
MOTION
Frames: 6
Frame Time: 0.008333333333333333
10.133800 15.161200 0.117400 35.997700 -85.642500 -26.344900 0.000000 0.000000 0.000000 -3.520400 -16.326900 -26.954100 4.781200 13.133100 39.868700 0.654300 6.690300 -19.157400 0.636200 -5.103300 -14.203300 0.000000 0.000000 0.000000 0.380400 11.934100 -23.409200 -4.734700 -13.078600 39.663500 -1.720800 0.571100 -24.651500 -0.689600 5.309000 -14.792100 -4.217800 -0.401000 0.803600 -0.233300 -0.654000 -2.246700 2.144200 -0.246000 -2.719800 -4.948900 -5.008500 -6.496800 -3.061000 -5.947800 13.199200 -0.528800 -3.404300 5.104600 0.000000 0.000000 0.000000 21.082000 -43.830600 -35.716300 90.583600 -59.998700 60.505400 -12.949800 32.604700 11.079300 0.000000 0.000000 0.000000 -7.125000 0.000000 0.000000 -27.206300 19.001300 -19.143700 0.000000 0.000000 0.000000 -32.179200 -32.593200 19.524500 -108.920800 -58.603100 -76.309100 11.192400 11.570600 56.990600 0.000000 0.000000 0.000000 7.125000 0.000000 -0.000000 88.314700 68.379100 -64.849400
10.133838 15.161251 0.117340 36.000910 -85.642665 -26.346242 0.000000 0.000000 0.000000 -3.519436 -16.327439 -26.956184 4.780743 13.132567 39.866695 0.654338 6.688758 -19.156597 0.636311 -5.103738 -14.204556 0.000000 0.000000 0.000000 0.379785 11.935708 -23.411144 -4.734462 -13.078321 39.662453 -1.720572 0.571002 -24.649873 -0.689124 5.307189 -14.786914 -4.218463 -0.401095 0.801919 -0.233579 -0.654102 -2.247360 2.144276 -0.246044 -2.719524 -4.940047 -5.006397 -6.496629 -3.068112 -5.945094 13.198943 -0.532191 -3.403015 5.103953 0.000000 0.000000 0.000000 21.081229 -43.832265 -35.715672 90.583143 -59.998703 60.505004 -12.963138 32.597382 11.067995 0.000000 0.000000 0.000000 -7.125000 0.000000 0.000000 -27.216571 19.010962 -19.146133 0.000000 0.000000 0.000000 -32.177421 -32.593495 19.524985 -108.922741 -58.602805 -76.310753 11.190490 11.569192 57.009594 0.000000 0.000000 0.000000 7.125000 0.000000 0.000000 88.360735 68.381961 -64.902137
10.133876 15.161302 0.117279 36.004120 -85.642830 -26.347583 0.000000 0.000000 0.000000 -3.518471 -16.327978 -26.958268 4.780286 13.132034 39.864691 0.654376 6.687217 -19.155795 0.636422 -5.104175 -14.205812 0.000000 0.000000 0.000000 0.379169 11.937316 -23.413089 -4.734224 -13.078042 39.661407 -1.720343 0.570903 -24.648246 -0.688648 5.305378 -14.781728 -4.219126 -0.401190 0.800238 -0.233858 -0.654203 -2.248020 2.144352 -0.246089 -2.719248 -4.931194 -5.004294 -6.496457 -3.075223 -5.942389 13.198686 -0.535582 -3.401731 5.103306 0.000000 0.000000 0.000000 21.080458 -43.833931 -35.715044 90.582686 -59.998706 60.504607 -12.976476 32.590065 11.056690 0.000000 0.000000 0.000000 -7.125000 0.000000 0.000000 -27.226842 19.020624 -19.148566 0.000000 0.000000 0.000000 -32.175641 -32.593790 19.525471 -108.924682 -58.602510 -76.312405 11.188581 11.567783 57.028587 0.000000 0.000000 0.000000 7.125000 0.000000 0.000000 88.406769 68.384822 -64.954874
10.133914 15.161352 0.117219 36.007330 -85.642995 -26.348925 0.000000 0.000000 0.000000 -3.517507 -16.328518 -26.960352 4.779830 13.131501 39.862686 0.654414 6.685675 -19.154992 0.636533 -5.104613 -14.207068 0.000000 0.000000 0.000000 0.378554 11.938925 -23.415033 -4.733986 -13.077763 39.660360 -1.720115 0.570805 -24.646618 -0.688173 5.303566 -14.776542 -4.219789 -0.401285 0.798557 -0.234137 -0.654305 -2.248679 2.144428 -0.246133 -2.718972 -4.922341 -5.002191 -6.496286 -3.082335 -5.939683 13.198429 -0.538972 -3.400446 5.102659 0.000000 0.000000 0.000000 21.079688 -43.835596 -35.714416 90.582230 -59.998710 60.504211 -12.989814 32.582747 11.045385 0.000000 0.000000 0.000000 -7.125000 0.000000 0.000000 -27.237112 19.030285 -19.150999 0.000000 0.000000 0.000000 -32.173862 -32.594085 19.525956 -108.926624 -58.602215 -76.314058 11.186671 11.566375 57.047581 0.000000 0.000000 0.000000 7.125000 0.000000 0.000000 88.452804 68.387683 -65.007611
10.133952 15.161403 0.117159 36.010540 -85.643160 -26.350267 0.000000 0.000000 0.000000 -3.516543 -16.329057 -26.962436 4.779373 13.130968 39.860681 0.654452 6.684134 -19.154190 0.636644 -5.105051 -14.208324 0.000000 0.000000 0.000000 0.377939 11.940533 -23.416978 -4.733748 -13.077483 39.659313 -1.719886 0.570707 -24.644991 -0.687697 5.301755 -14.771355 -4.220452 -0.401381 0.796875 -0.234417 -0.654406 -2.249339 2.144505 -0.246178 -2.718696 -4.913488 -5.000088 -6.496115 -3.089446 -5.936977 13.198172 -0.542363 -3.399161 5.102012 0.000000 0.000000 0.000000 21.078917 -43.837261 -35.713788 90.581773 -59.998713 60.503814 -13.003152 32.575429 11.034081 0.000000 0.000000 0.000000 -7.125000 0.000000 0.000000 -27.247383 19.039947 -19.153432 0.000000 0.000000 0.000000 -32.172082 -32.594380 19.526441 -108.928565 -58.601920 -76.315710 11.184762 11.564967 57.066575 0.000000 0.000000 0.000000 7.125000 0.000000 0.000000 88.498838 68.390544 -65.060348
10.133990 15.161454 0.117099 36.013750 -85.643325 -26.351609 0.000000 0.000000 0.000000 -3.515579 -16.329596 -26.964520 4.778916 13.130436 39.858677 0.654490 6.682592 -19.153387 0.636755 -5.105489 -14.209580 0.000000 0.000000 0.000000 0.377323 11.942141 -23.418922 -4.733511 -13.077204 39.658266 -1.719658 0.570608 -24.643364 -0.687221 5.299944 -14.766169 -4.221115 -0.401476 0.795194 -0.234696 -0.654508 -2.249999 2.144581 -0.246222 -2.718420 -4.904635 -4.997985 -6.495944 -3.096558 -5.934272 13.197915 -0.545754 -3.397877 5.101365 0.000000 0.000000 0.000000 21.078146 -43.838926 -35.713160 90.581316 -59.998716 60.503418 -13.016490 32.568112 11.022776 0.000000 0.000000 0.000000 -7.125000 0.000000 0.000000 -27.257654 19.049609 -19.155864 0.000000 0.000000 0.000000 -32.170303 -32.594675 19.526927 -108.930506 -58.601625 -76.317363 11.182852 11.563558 57.085568 0.000000 0.000000 0.000000 7.125000 0.000000 0.000000 88.544873 68.393406 -65.113084
